<svg width="52" height="52" viewBox="0 0 52 52" fill="#6366f1" xmlns="http://www.w3.org/2000/svg">
<path d="M51.2339 39.713C51.2339 40.2872 50.7684 40.7526 50.1943 40.7526H42.5148C41.9407 40.7526 41.4752 40.2872 41.4752 39.713V19.8352C41.4752 19.261 41.9407 18.7956 42.5148 18.7956H50.1943C50.7684 18.7956 51.2339 19.261 51.2339 19.8352V39.713Z"/>
<path d="M28.2638 51.7312H39.288C39.8622 51.7312 40.3276 51.2657 40.3276 50.6916V42.9128C40.3276 42.3386 39.8622 41.8731 39.288 41.8731H30.0618C26.6167 41.8731 23.824 39.0804 23.824 35.6354V19.7579C23.824 19.1837 23.3585 18.7183 22.7844 18.7183H14.3156C13.7415 18.7183 13.276 19.1837 13.276 19.7579V36.3994C13.276 36.6708 13.3821 36.9314 13.5716 37.1256L27.5198 51.4177C27.7154 51.6182 27.9837 51.7312 28.2638 51.7312Z"/>
<path d="M0 12.5163C0 11.9421 0.465458 11.4767 1.03963 11.4767L8.71906 11.4767C9.29324 11.4767 9.75869 11.9421 9.75869 12.5163L9.75869 32.3941C9.75869 32.9683 9.29323 33.4337 8.71906 33.4337H1.03963C0.465458 33.4337 0 32.9683 0 32.3941L0 12.5163Z"/>
<path d="M22.5657 0.497986L11.9469 0.497986C11.3727 0.497986 10.9072 0.963445 10.9072 1.53762L10.9072 9.31643C10.9072 9.8906 11.3727 10.3561 11.9469 10.3561L21.1731 10.3561C24.6181 10.3561 27.4109 13.1488 27.4109 16.5938V32.4713C27.4109 33.0455 27.8763 33.5109 28.4505 33.5109H36.9192C37.4934 33.5109 37.9589 33.0455 37.9589 32.4713V15.8383C37.9589 15.5619 37.8488 15.2969 37.653 15.1018L23.2995 0.801131C23.1046 0.606992 22.8408 0.497986 22.5657 0.497986Z"/>
</svg>
